<svg xmlns="http://www.w3.org/2000/svg" version="1.1" xmlns:xlink="http://www.w3.org/1999/xlink" xmlns:svgjs="http://svgjs.dev/svgjs" width="1500" height="1687" viewBox="0 0 1500 1687"><g transform="matrix(1,0,0,1,0.00002668866648036783,0)"><svg viewBox="0 0 320 360" data-background-color="#0c1d36" preserveAspectRatio="xMidYMid meet" height="1687" width="1500" xmlns="http://www.w3.org/2000/svg" xmlns:xlink="http://www.w3.org/1999/xlink"><g id="tight-bounds" transform="matrix(1,0,0,1,0.000005693582238563977,0)"><svg viewBox="0 0 320 360" height="360" width="320"><g><svg></svg></g><g><svg viewBox="0 0 320 360" height="360" width="320"><g><path transform="translate(-8.74414,11.24127) scale(3.37517,3.37517)" d="M89.9 29.89c-2.6-3.17-7.52-4.8-12.74-6.52-2.24-0.74-4.55-1.51-6.81-2.44-2.28-0.94-4.52-2.15-6.7-3.31-4.43-2.38-9.01-4.84-13.66-4.84-4.64 0-9.22 2.46-13.65 4.84-2.18 1.17-4.43 2.38-6.71 3.32-2.25 0.93-4.57 1.69-6.81 2.44-5.22 1.73-10.14 3.36-12.74 6.52-3.47 4.23-3.39 10.5-3.31 17.13 0.01 1 0.02 1.99 0.02 2.97 0 0.98-0.01 1.97-0.03 2.97-0.08 6.64-0.16 12.9 3.31 17.14 2.6 3.16 7.52 4.79 12.73 6.52 2.24 0.74 4.55 1.51 6.82 2.44 2.28 0.94 4.52 2.14 6.69 3.31 4.44 2.39 9.02 4.85 13.66 4.85 4.65 0 9.23-2.46 13.66-4.84 2.18-1.17 4.42-2.38 6.7-3.31 2.25-0.93 4.55-1.69 6.78-2.43 5.25-1.74 10.17-3.37 12.77-6.53 3.47-4.23 3.39-10.5 3.31-17.13-0.01-1.01-0.03-2-0.03-2.98 0-0.98 0.01-1.97 0.03-2.96 0.11-6.66 0.19-12.93-3.29-17.16zM93.12 27.25c-4.66-5.68-13.57-7.03-21.18-10.17-6.81-2.8-13.74-8.47-21.94-8.47-8.2 0-15.13 5.67-21.94 8.47-7.62 3.14-16.52 4.49-21.18 10.17-5.06 6.16-4.24 14.85-4.24 22.75 0 7.89-0.82 16.59 4.23 22.75 4.66 5.68 13.57 7.03 21.18 10.17 6.81 2.81 13.74 8.47 21.94 8.47 8.2 0 15.13-5.66 21.94-8.47 7.62-3.14 16.52-4.49 21.18-10.17 5.05-6.16 4.23-14.85 4.23-22.75 0.02-7.9 0.84-16.59-4.22-22.75zM94.4 52.94c0.09 6.88 0.17 13.35-3.58 17.92-2.82 3.43-7.9 5.12-13.28 6.9-2.24 0.74-4.53 1.5-6.73 2.41-2.22 0.91-4.43 2.1-6.57 3.25-4.58 2.46-9.29 4.99-14.24 4.99-4.95 0-9.66-2.53-14.22-4.98-2.15-1.16-4.37-2.35-6.59-3.26-2.23-0.92-4.52-1.68-6.74-2.41-5.39-1.78-10.47-3.47-13.28-6.9-3.74-4.56-3.66-11.04-3.58-17.9 0.01-1 0.03-1.98 0.03-2.96 0-0.98-0.01-1.96-0.02-2.96-0.09-6.86-0.17-13.34 3.58-17.9 2.82-3.43 7.9-5.11 13.28-6.9 2.23-0.74 4.52-1.5 6.74-2.41 2.22-0.92 4.44-2.11 6.59-3.26 4.56-2.45 9.28-4.99 14.22-4.99 4.94 0 9.66 2.53 14.22 4.98 2.15 1.16 4.37 2.35 6.59 3.26 2.22 0.92 4.52 1.67 6.73 2.41 5.38 1.78 10.47 3.47 13.28 6.9 3.75 4.57 3.67 11.04 3.58 17.9-0.01 1.01-0.03 1.99-0.03 2.96 0 0.98 0.01 1.96 0.02 2.95z" fill="#f9cc0b" fill-rule="nonzero" stroke="none" stroke-width="1" stroke-linecap="butt" stroke-linejoin="miter" stroke-miterlimit="10" stroke-dasharray="" stroke-dashoffset="0" font-family="none" font-weight="none" font-size="none" text-anchor="none" style="mix-blend-mode: normal" data-fill-palette-color="tertiary"></path></g><g transform="matrix(1,0,0,1,103.02301819226835,108)"><svg viewBox="0 0 113.9539636154633 144" height="144" width="113.9539636154633"><g><svg viewBox="0 0 192 242.62429425709092" height="144" width="113.9539636154633"><g transform="matrix(1,0,0,1,0,95.60546228044858)"><svg viewBox="0 0 192 147.01883197664233" height="147.01883197664233" width="192"><g id="textblocktransform"><svg viewBox="0 0 192 147.01883197664233" height="147.01883197664233" width="192" id="textblock"><g><svg viewBox="0 0 192 97.70305401459855" height="97.70305401459855" width="192"><g transform="matrix(1,0,0,1,0,0)"><svg width="192" viewBox="9.450000000000003 -39.06 167.24000000000007 82.1" height="97.70305401459855" data-palette-color="#0c1d36"><svg></svg><svg></svg><g class="wordmark-text-0" data-fill-palette-color="quaternary" id="text-0"><path transform="translate(8.11,0)" d="M22.9-39.06v0c0.473 0.667 0.71 1.687 0.71 3.06 0 1.373-0.047 2.49-0.14 3.35-0.087 0.853-0.22 1.677-0.4 2.47v0c-0.387 1.793-0.93 3.147-1.63 4.06v0c-0.607-3.14-1.39-5.387-2.35-6.74v0c-1.007-1.367-2.32-2.05-3.94-2.05-1.62 0-2.887 0.31-3.8 0.93-0.907 0.613-1.607 1.427-2.1 2.44v0c-0.813 1.673-1.22 4.143-1.22 7.41 0 3.26 0.37 6.247 1.11 8.96 0.74 2.707 1.793 5.037 3.16 6.99v0c2.887 4.153 6.64 6.23 11.26 6.23v0c-0.067 0.733-0.45 1.367-1.15 1.9v0c-0.213 0.167-0.44 0.263-0.68 0.29v0c-5.907 0-10.723-2.17-14.45-6.51v0c-3.96-4.627-5.94-10.927-5.94-18.9v0c0-4.167 1.22-7.3 3.66-9.4v0c2.167-1.853 5.13-2.78 8.89-2.78v0l4.08 0.05c1.92 0 3.27-0.277 4.05-0.83v0c0.327-0.247 0.62-0.557 0.88-0.93zM53.42 0h-8.52c0.207-1.027 0.31-1.843 0.31-2.45 0-0.613-0.01-1.073-0.03-1.38-0.027-0.313-0.06-0.643-0.1-0.99-0.04-0.353-0.09-0.743-0.15-1.17-0.053-0.433-0.103-0.937-0.15-1.51v0c-0.38-3.887-1.707-7.083-3.98-9.59v0c-1.013-1.107-2.107-1.95-3.28-2.53-1.167-0.573-2.13-0.86-2.89-0.86-0.753 0-1.333 0.047-1.74 0.14v0c-0.913 2.733-1.37 5.59-1.37 8.57v0c0 2.64 0.137 4.61 0.41 5.91v0c0.44 1.953 1.117 3.913 2.03 5.88v0h-7.3c0.393-0.973 0.59-3.027 0.59-6.16 0-3.133 0.233-6.063 0.7-8.79 0.473-2.727 1.09-5.157 1.85-7.29 0.753-2.133 1.6-4 2.54-5.6 0.933-1.6 1.867-3 2.8-4.2 0.94-1.193 1.823-2.22 2.65-3.08 0.833-0.853 1.527-1.603 2.08-2.25v0h7.69c-0.7 0.793-1.05 1.907-1.05 3.34v0c0 0.653 0.107 1.72 0.32 3.2v0l0.61 4.44c2.227 15.367 4.22 24.157 5.98 26.37zM33.89-22.92v0c0.633-0.247 1.3-0.37 2-0.37 0.7 0 1.33 0.05 1.89 0.15 0.56 0.093 1.117 0.253 1.67 0.48v0c1.193 0.46 2.187 1.187 2.98 2.18v0c-0.793-4.187-1.28-6.743-1.46-7.67v0l-0.86-4.27-1.39 1.66c-1.953 2.34-3.563 4.953-4.83 7.84zM66.53-14.99l-4.57-13.89c-0.06 2.373-0.09 4.83-0.09 7.37v0c0 3.467 0.057 7.203 0.17 11.21 0.113 4 0.197 6.273 0.25 6.82 0.06 0.547 0.137 1.023 0.23 1.43v0c0.18 0.747 0.473 1.43 0.88 2.05v0h-6.81c0.62-0.88 0.99-1.823 1.11-2.83 0.127-1.013 0.22-1.99 0.28-2.93v0c0.133-1.92 0.2-4.5 0.2-7.74v0c0-3.92-0.067-7.5-0.2-10.74v0l-0.27-6.72c-0.093-2.473-0.49-4.23-1.19-5.27v0c-0.26-0.393-0.593-0.767-1-1.12v0h9.54c0.64 2.78 1.43 5.733 2.37 8.86v0l4.45 14.18 6.81-23.04h9.52c-0.8 0.7-1.32 1.413-1.56 2.14v0c-0.36 1.127-0.563 2.43-0.61 3.91v0l-0.18 4.32c-0.207 5.067-0.31 9.56-0.31 13.48v0c0 6.573 0.3 10.747 0.9 12.52v0c0.113 0.327 0.26 0.653 0.44 0.98v0h-7.69c0.44-0.86 0.687-1.793 0.74-2.8 0.06-1 0.113-2.377 0.16-4.13v0c0.2-5.78 0.3-9.99 0.3-12.63v0c0-4.34-0.043-7.57-0.13-9.69v0l-8.98 29.25zM101.56-23.19v0c-1.233 0-1.85 1.113-1.85 3.34v0 3.08c0 5.66 0.06 9.153 0.18 10.48 0.12 1.327 0.243 2.25 0.37 2.77 0.12 0.527 0.287 0.993 0.5 1.4v0c0.34 0.667 1.023 1.373 2.05 2.12v0h-10.38c0.6-1.207 0.967-2.233 1.1-3.08 0.133-0.847 0.23-1.74 0.29-2.68v0c0.133-1.92 0.2-4.5 0.2-7.74v0c0-3.92-0.067-7.5-0.2-10.74v0l-0.27-6.72c-0.06-1.693-0.203-2.873-0.43-3.54v0c-0.36-1.053-0.947-2.003-1.76-2.85v0h13.64c3.68 0 6.343 0.39 7.99 1.17v0c1.74 0.813 2.61 2.203 2.61 4.17v0c0 2.413-1.033 4.407-3.1 5.98v0c-2.44 1.893-6.087 2.84-10.94 2.84zM107.65-27.67c0.513-0.513 0.893-1.06 1.14-1.64 0.247-0.58 0.37-1.117 0.37-1.61 0-0.5-0.07-0.993-0.21-1.48-0.14-0.487-0.413-0.917-0.82-1.29v0c-0.913-0.813-2.477-1.22-4.69-1.22v0c-1.333 0-2.203 0.163-2.61 0.49v0c-0.747 0.613-1.12 1.823-1.12 3.63v0c0 2.04 0.163 3.3 0.49 3.78 0.32 0.48 0.693 0.787 1.12 0.92 0.42 0.14 1.067 0.21 1.94 0.21 0.873 0 1.697-0.17 2.47-0.51 0.767-0.34 1.407-0.767 1.92-1.28zM137.77-12.52v0l0.12-9.38c0-6.56-0.243-10.75-0.73-12.57v0c-0.227-0.88-0.5-1.523-0.82-1.93-0.32-0.407-0.577-0.723-0.77-0.95v0h8.01l-0.51 0.68c-0.733 1.073-1.14 2.287-1.22 3.64-0.087 1.347-0.15 2.713-0.19 4.1-0.04 1.38-0.077 2.757-0.11 4.13v0c-0.033 2.293-0.05 4.857-0.05 7.69v0 2.97c0 5.26-0.847 9.03-2.54 11.31v0c-1.673 2.213-4.407 3.32-8.2 3.32v0c-7.34 0-10.993-4.713-10.96-14.14v0l0.02-18.28c0-2.573-0.453-4.38-1.36-5.42v0h9.25c-0.96 1.153-1.44 2.797-1.44 4.93v0c0 1.233-0.007 2.503-0.02 3.81v0l-0.1 7.81c-0.02 1.287-0.03 2.613-0.03 3.98v0c0 4.9 0.147 8.003 0.44 9.31 0.293 1.313 0.653 2.337 1.08 3.07v0c0.973 1.66 2.42 2.49 4.34 2.49v0c2.967 0 4.79-2.167 5.47-6.5v0c0.213-1.287 0.32-2.643 0.32-4.07zM153.39-12.94v0c-0.207 1.693-0.31 3.04-0.31 4.04 0 1 0.12 1.923 0.36 2.77 0.247 0.847 0.597 1.58 1.05 2.2v0c0.98 1.32 2.217 1.98 3.71 1.98v0c2.867 0 4.3-1.58 4.3-4.74v0c0-2.54-1.473-5.233-4.42-8.08v0l-2.54-2.47c-2.227-2.147-3.747-3.87-4.56-5.17v0c-1.613-2.573-2.42-5.13-2.42-7.67v0c0-2.067 0.667-3.8 2-5.2v0c1.613-1.707 3.933-2.56 6.96-2.56v0c1.187 0 2.083 0.057 2.69 0.17v0c1.12 0.213 1.867 0.32 2.24 0.32v0c0.947 0 1.68-0.293 2.2-0.88v0c0.193-0.213 0.403-0.49 0.63-0.83v0c1.193 0.667 1.79 3.117 1.79 7.35v0c0 2.7-0.27 4.693-0.81 5.98v0c-0.18 0.44-0.383 0.717-0.61 0.83v0c-0.26-2.46-1.057-4.657-2.39-6.59v0c-1.567-2.28-3.373-3.42-5.42-3.42v0c-1.76 0-2.843 0.803-3.25 2.41v0c-0.113 0.46-0.17 1.027-0.17 1.7 0 0.673 0.203 1.443 0.61 2.31 0.407 0.86 0.94 1.717 1.6 2.57 0.66 0.86 1.42 1.72 2.28 2.58v0c2.607 2.667 4.337 4.473 5.19 5.42 0.853 0.947 1.613 1.923 2.28 2.93v0c1.467 2.26 2.2 4.45 2.2 6.57v0c0 2.553-0.993 4.667-2.98 6.34v0c-2.053 1.713-4.69 2.57-7.91 2.57v0c-2.667 0-4.96-0.667-6.88-2v0c-2.12-1.467-3.18-3.403-3.18-5.81v0c0.633-2.267 2.017-3.927 4.15-4.98v0c0.573-0.293 1.11-0.507 1.61-0.64z" fill="#0c1d36" fill-rule="nonzero" stroke="none" stroke-width="1" stroke-linecap="butt" stroke-linejoin="miter" stroke-miterlimit="10" stroke-dasharray="" stroke-dashoffset="0" font-family="none" font-weight="none" font-size="none" text-anchor="none" style="mix-blend-mode: normal" data-fill-palette-color="quaternary" opacity="1"></path><path transform="translate(45.86,42.55)" d="M8.4-12.94v0c-0.213 1.693-0.32 3.04-0.32 4.04 0 1 0.123 1.923 0.37 2.77 0.24 0.847 0.59 1.58 1.05 2.2v0c0.973 1.32 2.21 1.98 3.71 1.98v0c2.86 0 4.29-1.58 4.29-4.74v0c0-2.54-1.47-5.233-4.41-8.08v0l-2.54-2.47c-2.233-2.147-3.757-3.87-4.57-5.17v0c-1.613-2.573-2.42-5.13-2.42-7.67v0c0-2.067 0.67-3.8 2.01-5.2v0c1.607-1.707 3.923-2.56 6.95-2.56v0c1.193 0 2.09 0.057 2.69 0.17v0c1.12 0.213 1.87 0.32 2.25 0.32v0c0.94 0 1.67-0.293 2.19-0.88v0c0.2-0.213 0.413-0.49 0.64-0.83v0c1.187 0.667 1.78 3.117 1.78 7.35v0c0 2.7-0.27 4.693-0.81 5.98v0c-0.173 0.44-0.377 0.717-0.61 0.83v0c-0.26-2.46-1.057-4.657-2.39-6.59v0c-1.56-2.28-3.367-3.42-5.42-3.42v0c-1.753 0-2.837 0.803-3.25 2.41v0c-0.113 0.46-0.17 1.027-0.17 1.7 0 0.673 0.203 1.443 0.61 2.31 0.407 0.86 0.94 1.717 1.6 2.57 0.66 0.86 1.423 1.72 2.29 2.58v0c2.6 2.667 4.327 4.473 5.18 5.42 0.86 0.947 1.623 1.923 2.29 2.93v0c1.46 2.26 2.19 4.45 2.19 6.57v0c0 2.553-0.99 4.667-2.97 6.34v0c-2.053 1.713-4.69 2.57-7.91 2.57v0c-2.673 0-4.97-0.667-6.89-2v0c-2.113-1.467-3.17-3.403-3.17-5.81v0c0.633-2.267 2.017-3.927 4.15-4.98v0c0.567-0.293 1.103-0.507 1.61-0.64zM47.39-9.03v0c0.44 0.6 0.66 1.47 0.66 2.61 0 1.14-0.05 2.047-0.15 2.72-0.1 0.673-0.253 1.287-0.46 1.84v0c-0.493 1.24-1.137 1.86-1.93 1.86v0h-19.78c1.253-0.667 2.083-1.31 2.49-1.93v0c0.767-1.153 1.15-2.617 1.15-4.39v0c-0.013-4.347-0.02-8.28-0.02-11.8v0-12.84c0-2.42-0.383-4.177-1.15-5.27v0c-0.293-0.393-0.643-0.767-1.05-1.12v0h18.36c1.107 0.387 1.863 1.753 2.27 4.1v0c0.113 0.647 0.17 1.28 0.17 1.9v0c0 1.273-0.187 2.283-0.56 3.03v0l-1.32-2.64c-0.88-1.72-2.14-2.873-3.78-3.46v0c-0.913-0.327-1.94-0.49-3.08-0.49-1.14 0-1.953 0.037-2.44 0.11-0.487 0.073-0.863 0.247-1.13 0.52v0c-0.42 0.473-0.63 1.373-0.63 2.7 0 1.327 0.033 2.247 0.1 2.76 0.067 0.513 0.22 0.933 0.46 1.26v0c0.507 0.633 1.573 0.95 3.2 0.95v0h7.67c-0.38 0.94-0.763 1.607-1.15 2v0c-0.78 0.78-1.84 1.17-3.18 1.17v0c-0.52 0-1.013-0.057-1.48-0.17v0c-0.88-0.213-1.653-0.32-2.32-0.32-0.673 0-1.223 0.063-1.65 0.19-0.433 0.12-0.773 0.31-1.02 0.57v0c-0.42 0.453-0.63 1.277-0.63 2.47v0 11.64c0 3.06 0.17 4.877 0.51 5.45 0.347 0.567 0.763 0.903 1.25 1.01 0.487 0.107 1.3 0.16 2.44 0.16 1.14 0 2.173-0.163 3.1-0.49 0.927-0.327 1.703-0.783 2.33-1.37 0.627-0.587 1.143-1.28 1.55-2.08 0.407-0.807 0.807-1.69 1.2-2.65zM71.46-9.03v0c0.44 0.633 0.66 1.397 0.66 2.29 0 0.893-0.06 1.667-0.18 2.32-0.127 0.653-0.293 1.273-0.5 1.86v0c-0.493 1.287-1.113 2.14-1.86 2.56v0h-19.63c1.287-0.8 2.127-1.493 2.52-2.08v0c0.747-1.107 1.12-2.537 1.12-4.29v0c-0.02-4.333-0.03-8.25-0.03-11.75v0-12.79c0-2.36-0.39-4.093-1.17-5.2v0c-0.273-0.407-0.613-0.82-1.02-1.24v0h10.03c-0.96 1.38-1.503 2.803-1.63 4.27v0c-0.033 0.487-0.05 1.023-0.05 1.61v0 22.36c0 3.047 0.163 4.867 0.49 5.46 0.32 0.593 0.71 0.943 1.17 1.05 0.453 0.107 1.143 0.16 2.07 0.16 0.927 0 1.807-0.163 2.64-0.49 0.827-0.327 1.567-0.783 2.22-1.37v0c1.107-1.007 2.157-2.583 3.15-4.73zM93.7-9.03v0c0.44 0.633 0.66 1.397 0.66 2.29 0 0.893-0.06 1.667-0.18 2.32-0.127 0.653-0.293 1.273-0.5 1.86v0c-0.493 1.287-1.113 2.14-1.86 2.56v0h-19.63c1.287-0.8 2.127-1.493 2.52-2.08v0c0.747-1.107 1.12-2.537 1.12-4.29v0c-0.013-4.333-0.02-8.25-0.02-11.75v0-12.79c0-2.36-0.393-4.093-1.18-5.2v0c-0.273-0.407-0.613-0.82-1.02-1.24v0h10.03c-0.96 1.38-1.503 2.803-1.63 4.27v0c-0.033 0.487-0.05 1.023-0.05 1.61v0 22.36c0 3.047 0.163 4.867 0.49 5.46 0.32 0.593 0.71 0.943 1.17 1.05 0.453 0.107 1.143 0.16 2.07 0.16 0.927 0 1.807-0.163 2.64-0.49 0.833-0.327 1.573-0.783 2.22-1.37v0c1.107-1.007 2.157-2.583 3.15-4.73z" fill="#0c1d36" fill-rule="nonzero" stroke="none" stroke-width="1" stroke-linecap="butt" stroke-linejoin="miter" stroke-miterlimit="10" stroke-dasharray="" stroke-dashoffset="0" font-family="none" font-weight="none" font-size="none" text-anchor="none" style="mix-blend-mode: normal" data-fill-palette-color="quaternary" opacity="1"></path></g></svg></g></svg></g><g transform="matrix(1,0,0,1,0,108.42262759708031)"><svg viewBox="0 0 192 38.596204379562046" height="38.596204379562046" width="192"><g transform="matrix(1,0,0,1,0,0)"><svg width="192" viewBox="0.35 -37.7 191.27 38.45" height="38.596204379562046" data-palette-color="#0c1d36"><path d="M11.75-35.25Q14.75-35.25 17.05-34.2 19.35-33.15 21.3-31.05L21.3-31.05 18.35-27.65Q16.8-29.05 15.33-29.75 13.85-30.45 12.2-30.45L12.2-30.45Q10.3-30.45 9.2-29.28 8.1-28.1 8.1-26.2L8.1-26.2Q8.1-24.3 9.25-23.1 10.4-21.9 13.75-20.6L13.75-20.6Q18.05-18.85 20.08-16.5 22.1-14.15 22.1-9.85L22.1-9.85Q22.1-6.9 20.75-4.48 19.4-2.05 16.88-0.65 14.35 0.75 11 0.75L11 0.75Q7.55 0.75 5-0.48 2.45-1.7 0.35-3.95L0.35-3.95 3.55-7.45Q5.35-5.85 7-5 8.65-4.15 10.6-4.15L10.6-4.15Q12.9-4.15 14.18-5.58 15.45-7 15.45-9.45L15.45-9.45Q15.45-11.6 14.33-12.98 13.2-14.35 10.15-15.5L10.15-15.5Q5.55-17.35 3.53-19.75 1.5-22.15 1.5-25.75L1.5-25.75Q1.5-28.5 2.83-30.65 4.15-32.8 6.5-34.02 8.85-35.25 11.75-35.25L11.75-35.25ZM49.57-13.85Q49.57-13.4 49.42-11.3L49.42-11.3 35.77-11.3Q35.97-7.2 37.19-5.58 38.42-3.95 40.67-3.95L40.67-3.95Q42.22-3.95 43.47-4.48 44.72-5 46.17-6.15L46.17-6.15 48.72-2.65Q45.22 0.75 40.32 0.75L40.32 0.75Q35.12 0.75 32.34-2.85 29.57-6.45 29.57-13L29.57-13Q29.57-19.55 32.22-23.35 34.87-27.15 39.72-27.15L39.72-27.15Q44.37-27.15 46.97-23.78 49.57-20.4 49.57-13.85L49.57-13.85ZM43.57-15.3L43.57-15.65Q43.57-19.4 42.67-21.13 41.77-22.85 39.77-22.85L39.77-22.85Q37.92-22.85 36.94-21.18 35.97-19.5 35.77-15.3L35.77-15.3 43.57-15.3ZM64.08 0.75Q61.38 0.75 59.81-0.93 58.23-2.6 58.23-5.4L58.23-5.4 58.23-37.05 64.38-37.7 64.38-5.65Q64.38-5 64.68-4.6 64.98-4.2 65.58-4.2L65.58-4.2Q65.93-4.2 66.26-4.3 66.58-4.4 66.68-4.4L66.68-4.4 67.88-0.2Q66.18 0.75 64.08 0.75L64.08 0.75ZM81.15 0.75Q78.45 0.75 76.87-0.93 75.3-2.6 75.3-5.4L75.3-5.4 75.3-37.05 81.45-37.7 81.45-5.65Q81.45-5 81.75-4.6 82.05-4.2 82.65-4.2L82.65-4.2Q83-4.2 83.32-4.3 83.65-4.4 83.75-4.4L83.75-4.4 84.95-0.2Q83.25 0.75 81.15 0.75L81.15 0.75ZM116.78-33.05Q115.38-33.05 114.7-32.3 114.03-31.55 114.03-30L114.03-30 114.03-26.45 119.08-26.45 118.38-22 114.03-22 114.03 0 107.88 0 107.88-22 104.58-22 104.58-26.45 107.88-26.45 107.88-29.8Q107.88-33.4 109.98-35.55 112.08-37.7 115.98-37.7L115.98-37.7Q119.03-37.7 121.88-36.2L121.88-36.2 120.18-32.2Q118.43-33.05 116.78-33.05L116.78-33.05ZM143.39-6.4Q143.39-5.1 143.74-4.48 144.09-3.85 144.89-3.45L144.89-3.45 143.64 0.65Q141.59 0.4 140.37-0.45 139.14-1.3 138.54-3.05L138.54-3.05Q136.24 0.75 132.09 0.75L132.09 0.75Q128.79 0.75 126.84-1.48 124.89-3.7 124.89-7.4L124.89-7.4Q124.89-11.7 127.57-13.95 130.24-16.2 135.34-16.2L135.34-16.2 137.39-16.2 137.39-18.05Q137.39-20.55 136.52-21.58 135.64-22.6 133.69-22.6L133.69-22.6Q131.34-22.6 127.84-21.3L127.84-21.3 126.44-25.3Q128.44-26.2 130.59-26.68 132.74-27.15 134.69-27.15L134.69-27.15Q143.39-27.15 143.39-18.35L143.39-18.35 143.39-6.4ZM133.74-3.7Q136.14-3.7 137.39-7L137.39-7 137.39-12.55 135.94-12.55Q133.39-12.55 132.22-11.4 131.04-10.25 131.04-7.85L131.04-7.85Q131.04-5.8 131.74-4.75 132.44-3.7 133.74-3.7L133.74-3.7ZM161.16-27.15Q165.86-27.15 169.11-24.05L169.11-24.05 166.76-20.7Q165.36-21.7 164.11-22.2 162.86-22.7 161.56-22.7L161.56-22.7Q160.11-22.7 159.28-21.93 158.46-21.15 158.46-19.8L158.46-19.8Q158.46-18.45 159.38-17.63 160.31-16.8 163.11-15.7L163.11-15.7Q166.56-14.35 168.21-12.5 169.86-10.65 169.86-7.55L169.86-7.55Q169.86-3.7 167.16-1.48 164.46 0.75 160.31 0.75L160.31 0.75Q157.61 0.75 155.33-0.23 153.06-1.2 151.36-2.95L151.36-2.95 154.36-6.25Q157.16-3.8 160.06-3.8L160.06-3.8Q161.71-3.8 162.66-4.67 163.61-5.55 163.61-7.1L163.61-7.1Q163.61-8.25 163.21-8.97 162.81-9.7 161.81-10.33 160.81-10.95 158.81-11.7L158.81-11.7Q155.36-13.05 153.88-14.85 152.41-16.65 152.41-19.45L152.41-19.45Q152.41-22.8 154.78-24.98 157.16-27.15 161.16-27.15L161.16-27.15ZM189.47-5L191.62-1.2Q189.17 0.75 185.87 0.75L185.87 0.75Q182.42 0.75 180.62-1.23 178.82-3.2 178.82-6.6L178.82-6.6 178.82-22 175.72-22 175.72-26.45 178.82-26.45 178.82-32.3 184.97-33.05 184.97-26.45 189.97-26.45 189.37-22 184.97-22 184.97-6.6Q184.97-4.2 187.02-4.2L187.02-4.2Q187.67-4.2 188.17-4.38 188.67-4.55 189.47-5L189.47-5Z" opacity="1" transform="matrix(1,0,0,1,0,0)" fill="#0c1d36" class="slogan-text-1" data-fill-palette-color="quaternary" id="text-1"></path></svg></g></svg></g></svg></g></svg></g><g transform="matrix(1,0,0,1,52.690560000000005,0)"><svg viewBox="0 0 86.61887999999999 84.88588869796682" height="84.88588869796682" width="86.61887999999999"><g><svg xmlns="http://www.w3.org/2000/svg" xml:space="preserve" viewBox="11.000749999999996 12 75.51075000000002 74" x="0" y="0" height="84.88588869796682" width="86.61887999999999" class="icon-icon-0" data-fill-palette-color="quaternary" id="icon-0"><path d="M70.659 28.521l5.866 1.183c0.814 0.164 0.814 1.327 0 1.491l-5.866 1.183a0.76 0.76 0 0 0-0.595 0.595l-1.183 5.866c-0.164 0.814-1.327 0.814-1.491 0l-1.183-5.866a0.76 0.76 0 0 0-0.595-0.595l-5.866-1.183c-0.814-0.164-0.814-1.327 0-1.491l5.866-1.183a0.76 0.76 0 0 0 0.595-0.595l1.183-5.866c0.164-0.814 1.327-0.814 1.491 0l1.183 5.866a0.76 0.76 0 0 0 0.595 0.595M82.194 21.097l3.911 0.789c0.542 0.109 0.542 0.885 0 0.994l-3.911 0.789a0.51 0.51 0 0 0-0.397 0.397l-0.789 3.911c-0.109 0.542-0.885 0.542-0.994 0l-0.789-3.911a0.51 0.51 0 0 0-0.397-0.397l-3.911-0.789c-0.542-0.109-0.542-0.885 0-0.994l3.911-0.789c0.2-0.04 0.356-0.197 0.397-0.397l0.789-3.911c0.109-0.542 0.885-0.542 0.994 0l0.789 3.911c0.041 0.2 0.197 0.357 0.397 0.397M25.195 69.597l6.993 1.41c1.083 0.218 1.083 1.767 0 1.985l-6.993 1.41c-0.4 0.081-0.712 0.393-0.792 0.792l-1.41 6.993c-0.218 1.083-1.767 1.083-1.985 0l-1.41-6.993a1.01 1.01 0 0 0-0.792-0.792l-6.993-1.41c-1.083-0.218-1.083-1.767 0-1.985l6.993-1.41c0.4-0.081 0.712-0.393 0.792-0.792l1.41-6.993c0.218-1.083 1.767-1.083 1.985 0l1.41 6.993c0.08 0.399 0.393 0.712 0.792 0.792" fill="#0c1d36" data-fill-palette-color="quaternary"></path><path d="M78 45.248V45h-0.098a30 30 0 0 0-6.262-9.721l-0.798 3.957c-0.062 0.307-0.174 0.59-0.322 0.847 1.18 1.519 2.216 3.157 3.04 4.918h-7.658c-0.936-4.449-2.436-8.328-4.366-11.403l-2.185-0.441c-1.304-0.263-2.215-1.376-2.215-2.706s0.911-2.443 2.215-2.706l0.404-0.082A29.8 29.8 0 0 0 53 26.168V15a3 3 0 1 0-6 0v11.15C31.861 27.66 20 40.47 20 56c0 1.213 0.081 2.407 0.221 3.583A3 3 0 0 1 22 59c1.452 0 2.666 0.994 2.953 2.417l1.281 6.349 1.158 0.234h6.925c1.094 4.679 2.828 8.68 5.031 11.717a26 26 0 0 1-7.062-4.704l-4.663 0.94C33.121 82.113 41.114 86 50 86c16.542 0 30-13.458 30-30 0-3.788-0.713-7.411-2-10.752M34.099 45h-7.658a26.1 26.1 0 0 1 12.907-12.717c-2.357 3.251-4.175 7.609-5.249 12.717M48 81.693C43.845 80.41 40.343 75.189 38.468 68H48zM48 64H37.63a50.3 50.3 0 0 1-0.63-8c0-2.426 0.17-4.772 0.481-7H48z m4 17.693V68h9.532C59.657 75.189 56.155 80.41 52 81.693M52 45V30.307c4.345 1.342 7.978 6.99 9.78 14.693z m22.74 19h-8.307c0.369-2.53 0.567-5.208 0.567-8 0-2.428-0.152-4.767-0.432-7h8.471a26 26 0 0 1-0.299 15" fill="#0c1d36" data-fill-palette-color="quaternary"></path></svg></g></svg></g><g></g></svg></g></svg></g></svg></g><defs></defs></svg><rect width="320" height="360" fill="none" stroke="none" visibility="hidden"></rect></g></svg></g></svg>